<?xml version="1.0" standalone="no"?>
<!DOCTYPE svg PUBLIC "-//W3C//DTD SVG 20010904//EN"
 "http://www.w3.org/TR/2001/REC-SVG-20010904/DTD/svg10.dtd">
<svg version="1.0" xmlns="http://www.w3.org/2000/svg"
 width="692.000000pt" height="444.000000pt" viewBox="0 0 692.000000 444.000000"
 preserveAspectRatio="xMidYMid meet">

<g transform="translate(0.000000,444.000000) scale(0.100000,-0.100000)"
fill="#000000" stroke="none">
<path d="M1250 4149 c-188 -24 -350 -101 -489 -233 -109 -105 -182 -224 -240
-395 l-22 -65 1 -1393 1 -1393 -241 0 -240 0 0 -335 0 -335 3445 0 3445 0 0
335 0 335 -240 0 -241 0 1 1393 1 1393 -22 65 c-87 256 -235 436 -446 543
-246 124 -600 124 -846 0 -211 -107 -359 -287 -446 -543 l-22 -65 1 -1393 1
-1393 -1196 0 -1196 0 1 1393 1 1393 -22 65 c-91 268 -247 451 -472 554 -160
73 -332 98 -517 74z m309 -494 c70 -39 141 -118 166 -186 19 -53 20 -87 23
-1426 l2 -1373 -370 0 -370 0 2 1373 c3 1337 4 1373 23 1426 34 92 139 190
228 212 18 4 80 6 138 5 95 -3 111 -6 158 -31z m4170 0 c70 -39 141 -118 166
-186 19 -53 20 -87 23 -1426 l2 -1373 -380 0 -380 0 2 1373 c3 1337 4 1373 23
1426 34 92 140 191 228 211 18 4 84 7 148 5 106 -2 120 -4 168 -30z"/>
</g>
</svg>
